HIERARCHY
ROOT hip
{
	OFFSET 0.000000 0.000000 0.000000 
	CHANNELS 6 Xposition Yposition Zposition Xrotation Zrotation Yrotation
	JOINT abdomen
	{
		OFFSET 0.000000 3.402643 0.000000 
		CHANNELS 3 Xrotation Zrotation Yrotation
		JOINT chest
		{
			OFFSET 0.000000 8.438565 -0.680529 
			CHANNELS 3 Xrotation Zrotation Yrotation
			JOINT neck
			{
				OFFSET 0.000000 10.207942 -0.272212 
				CHANNELS 3 Xrotation Zrotation Yrotation
				JOINT head
				{
					OFFSET 0.000000 3.130431 0.000000 
					CHANNELS 3 Xrotation Zrotation Yrotation
					End Site
					{
						OFFSET 0.000000 3.130435 0.000000 
					}
				}
			}
			JOINT lCollar
			{
				OFFSET 3.470700 6.669187 -0.816635 
				CHANNELS 3 Yrotation Zrotation Xrotation
				JOINT lShldr
				{
					OFFSET 3.198488 0.000000 0.000000 
					CHANNELS 3 Zrotation Yrotation Xrotation
					JOINT lForeArm
					{
						OFFSET 10.139888 0.000000 0.000000 
						CHANNELS 3 Yrotation Zrotation Xrotation
						JOINT lHand
						{
							OFFSET 8.370511 0.000000 0.000000 
							CHANNELS 3 Zrotation Yrotation Xrotation
							End Site
							{
								OFFSET 4.083176 0.000000 0.000000 
							}
						}
					}
				}
			}
			JOINT rCollar
			{
				OFFSET -3.470700 6.669187 -0.816635 
				CHANNELS 3 Yrotation Zrotation Xrotation
				JOINT rShldr
				{
					OFFSET -3.198488 0.000000 0.000000 
					CHANNELS 3 Zrotation Yrotation Xrotation
					JOINT rForeArm
					{
						OFFSET -10.139888 0.000000 0.000000 
						CHANNELS 3 Yrotation Zrotation Xrotation
						JOINT rHand
						{
							OFFSET -8.370511 0.000000 0.000000 
							CHANNELS 3 Zrotation Yrotation Xrotation
							End Site
							{
								OFFSET -4.083176 0.000000 0.000000 
							}
						}
					}
				}
			}
		}
	}
	JOINT lThigh
	{
		OFFSET 5.308129 -1.633274 1.361059 
		CHANNELS 3 Xrotation Zrotation Yrotation
		JOINT lShin
		{
			OFFSET -2.041588 -20.007561 0.000000 
			CHANNELS 3 Xrotation Zrotation Yrotation
			JOINT lFoot
			{
				OFFSET 0.000000 -19.190928 -1.224953 
				CHANNELS 3 Xrotation Yrotation Zrotation
				End Site
				{
					OFFSET 0.000000 -2.449906 4.627600 
				}
			}
		}
	}
	JOINT rThigh
	{
		OFFSET -5.308129 -1.633274 1.361059 
		CHANNELS 3 Xrotation Zrotation Yrotation
		JOINT rShin
		{
			OFFSET 2.041588 -20.007561 0.000000 
			CHANNELS 3 Xrotation Zrotation Yrotation
			JOINT rFoot
			{
				OFFSET 0.000000 -19.190928 -1.224953 
				CHANNELS 3 Xrotation Yrotation Zrotation
				End Site
				{
					OFFSET 0.000000 -2.449906 4.627600 
				}
			}
		}
	}
}
MOTION
Frames: 11
Frame Time: 0.033333
-35.912682 50.258049 28.695276 156.668304 -171.811859 -6.610888 0.000000 0.000000 0.000000 19.413685 -5.218335 9.796316 8.717272 -1.627089 3.897961 22.107149 7.907197 -1.577196 3.945273 4.838998 18.794889 -58.695847 18.575678 7.901139 -60.377464 1.227138 17.610039 2.581030 -0.604321 -3.536425 8.450324 24.993452 19.306749 43.295391 -20.731211 -9.967224 94.243698 -2.807652 31.524092 -15.740898 1.240617 -4.070220 -51.333096 2.489699 8.266581 61.964432 2.157300 24.989119 -7.411150 -0.277139 5.473438 -8.003902 -8.188836 -3.625994 -2.069284 5.436532 2.517091 -4.003702 0.133241 -1.912853 
-35.864418 50.366886 26.666660 -21.844893 -7.656112 170.834381 0.000000 0.000000 0.000000 23.764605 -7.576467 10.067436 12.955185 -3.211549 4.763144 17.724771 8.882550 -1.767789 7.683680 -1.586327 22.823711 -52.807606 26.368919 5.782304 -64.754097 1.803576 15.713579 1.936676 -4.893182 -3.504572 10.222472 24.994696 23.315617 40.097908 -27.466331 -10.781751 101.304031 -3.062269 31.219009 -14.053817 2.854069 -4.189497 -53.422680 3.925378 5.531514 57.430676 0.592761 24.953648 -4.667882 -0.137281 3.304236 -2.284406 -6.988629 -4.635067 2.597694 4.550086 2.403095 1.090251 0.069984 -0.452939 
-35.741936 50.013554 24.431946 -20.225700 -6.937890 171.106094 0.000000 0.000000 0.000000 27.674929 -8.936780 8.318624 16.837198 -4.790466 4.419056 14.370690 11.769099 -2.173765 9.457502 -5.257563 24.997105 -54.339607 32.674511 -0.951663 -64.059166 2.536328 12.405582 -0.050268 -2.928109 -3.411033 9.457520 24.989126 24.990284 42.971191 -27.625736 -7.507517 101.739899 -3.190657 31.341908 -14.389402 3.204604 -4.240047 -51.024254 3.525141 1.302430 43.144474 -2.030426 17.767002 7.130860 0.079571 -3.444441 1.161351 -6.142650 -5.605604 14.846089 3.190140 0.914058 6.924027 0.147653 1.608140 
-35.712151 49.053902 21.866571 160.273163 -173.901047 -7.582259 0.000000 0.000000 0.000000 30.416739 -9.774018 6.715029 18.682297 -5.040381 3.322612 13.853973 12.954205 -1.582500 10.552945 -7.599400 24.992102 -58.458874 35.840958 -10.707424 -60.351898 4.005246 11.670742 -5.083891 1.630303 -3.417611 9.157914 24.988691 24.993818 45.697075 -27.534237 -6.568412 99.236908 -3.178998 31.491693 -13.717141 2.495944 -4.130834 -46.542645 1.962860 -2.401338 24.498541 -3.465706 21.121918 20.741810 -1.320634 -6.784269 3.241153 -5.272745 -6.615736 28.494024 2.059064 -1.779312 12.817336 0.423545 3.594343 
-35.996727 47.293098 18.951551 -20.124142 -2.997179 170.689911 0.000000 0.000000 0.000000 30.985365 -9.800727 7.892830 20.453632 -3.816500 4.472474 11.128555 12.282278 -1.258391 12.706386 -8.113167 25.000000 -63.324310 36.375023 -20.489183 -54.466503 5.000169 16.532846 -9.347299 0.669241 -3.217181 11.561287 24.993599 24.994398 48.075871 -27.700987 -7.720829 94.235100 -3.163258 31.985096 -10.537114 2.713536 -3.974987 -44.021435 4.101421 -2.273312 21.771643 -3.083182 23.097679 9.600163 0.116136 -2.922412 5.209712 -3.063635 -6.639300 40.560497 0.681715 -5.484535 14.185066 0.545194 3.802703 
-36.304165 45.677242 16.311201 -18.963013 -2.173616 170.011978 0.000000 0.000000 0.000000 32.748699 -10.379739 7.576177 23.390181 -3.873481 4.736851 8.451459 13.743834 -1.747997 14.445900 -8.954691 25.000000 -68.110168 34.592476 -28.173733 -52.193504 4.995370 19.221609 -9.754108 -1.021790 -3.054708 12.271088 24.991583 24.987198 49.146435 -24.486067 -8.468584 87.992752 -2.890563 29.985012 -7.463502 1.960284 -3.789297 -44.381767 3.485718 -0.753010 32.841526 -2.052322 22.481949 -7.719061 0.177153 -2.737775 6.330268 -3.696961 -8.683525 54.466084 -1.397031 -10.244157 12.012099 0.337073 2.740222 
-36.427280 45.366798 14.344515 162.400589 -176.102325 -7.967888 0.000000 0.000000 0.000000 36.755955 -10.702766 5.395256 26.061522 -4.039024 2.535392 7.733338 14.660911 -1.816729 13.256936 -10.784276 25.000000 -72.925545 28.109880 -34.147362 -54.293476 5.004258 14.976057 -8.832458 0.898168 -3.261574 8.476455 24.990038 24.988592 45.797844 -17.034042 -9.644330 82.078011 -2.214405 26.563427 -7.282945 -0.114193 -3.667441 -43.622311 -0.586379 -0.910674 36.444023 -0.841110 24.973679 -9.607070 0.513446 -4.954082 3.248072 -6.508445 -12.326509 69.074570 -3.206694 -15.733112 10.287887 0.212365 1.766200 
-36.711018 45.841213 12.771226 -19.566513 -3.648672 171.261063 0.000000 0.000000 0.000000 38.994968 -9.717063 5.964247 26.777906 -3.725389 2.994017 5.785287 14.685911 -3.138331 11.529463 -10.484520 24.995256 -75.725838 16.394514 -32.847660 -53.626389 4.995123 7.747103 -3.661909 3.540715 -3.487236 6.800873 24.990568 24.990610 41.538433 -9.136036 -14.290538 77.202385 -2.122729 25.300278 -8.094728 -0.885838 -3.651994 -42.520245 -0.410030 -0.746622 34.937225 -0.789077 24.940536 -11.208731 0.606797 -5.112214 -6.745463 -7.261026 -12.792251 81.695686 -4.893700 -20.277319 8.429997 0.070095 0.986069 
-37.125446 46.434353 11.431943 -21.076664 -3.078171 169.085480 0.000000 0.000000 0.000000 40.627232 -8.326366 6.878465 27.459379 -3.465683 4.539475 3.438253 14.674884 -4.419580 11.752713 -8.742430 24.996058 -74.075073 3.903370 -21.361807 -54.136631 4.991969 2.275297 3.680758 4.570189 -3.511782 7.204241 24.993332 24.992683 37.277294 -2.895609 -18.425240 75.405792 -1.796924 21.110682 -9.706326 -3.485497 -3.481475 -40.229469 0.800380 -0.129501 32.086014 -1.337418 24.953270 -12.669576 0.614782 -4.504572 -18.257711 -6.657721 -11.726192 90.861214 -6.408851 -22.536592 6.189868 0.025545 0.366352 
-37.330830 47.179226 10.102309 -20.318821 -2.887523 169.204559 0.000000 0.000000 0.000000 42.965328 -6.091258 6.342351 28.927279 -2.531659 4.378918 2.359088 14.161202 -4.279682 10.613587 -7.352242 24.997837 -70.126144 -7.989688 -8.655330 -59.050846 3.612567 8.138747 1.812078 1.586579 -3.426841 5.182276 24.994423 24.988823 31.484173 2.285423 -20.045534 76.240768 -1.347100 18.528553 -11.743818 -6.004185 -3.293527 -36.259174 0.594973 0.304750 28.958540 -1.955881 24.943062 -11.222256 0.447707 -3.477286 -27.290590 -6.218931 -11.002947 94.127113 -6.700303 -21.712570 3.378450 0.039993 -0.306364 
-37.356544 47.630280 8.567904 -19.377451 -1.611363 171.129211 0.000000 0.000000 0.000000 44.360912 -2.600522 5.286657 29.421057 -0.526368 3.486451 2.882001 13.927385 -3.680550 7.563378 -5.240175 24.995010 -65.494545 -19.542210 -1.677254 -64.173294 3.032818 19.838247 -5.525492 -3.666332 -3.054494 2.140713 24.992849 24.995144 27.619835 7.150615 -20.918873 77.465912 -1.430946 20.714680 -11.730974 -3.760972 -3.472708 -33.810753 0.341237 -0.379357 29.804497 -1.490504 22.570213 -10.220757 0.402184 -3.653592 -34.959381 -5.204967 -9.934587 91.717865 -5.029391 -18.642908 0.435560 0.066499 -0.976301 
